<svg width="335" height="111" viewBox="0 0 335 111" fill="none" xmlns="http://www.w3.org/2000/svg">
<path d="M1.23472 51C0.995105 51 0.875305 50.8802 0.875305 50.6406L1.01908 1.25695C1.01908 1.06527 1.11492 0.969421 1.30661 0.969421L14.7487 0.897541C17.3844 0.849621 19.7805 1.47261 21.937 2.7665C24.1414 4.06039 25.8906 5.80954 27.1845 8.01399C28.4784 10.1705 29.1253 12.5666 29.1253 15.2023V35.8327C29.1253 38.6122 28.4544 41.152 27.1126 43.4523C25.7708 45.7046 23.9737 47.5017 21.7214 48.8435C19.4691 50.1853 16.9292 50.8802 14.1018 50.9281L1.23472 51ZM9.64499 42.1584H14.1018C15.8749 42.1584 17.3605 41.5354 18.5585 40.2894C19.8045 39.0435 20.4275 37.5579 20.4275 35.8327V15.1304C20.4275 13.5969 19.8524 12.279 18.7023 11.1768C17.6001 10.0267 16.2822 9.47559 14.7487 9.52349L9.71688 9.59539L9.64499 42.1584ZM35.0686 51C34.8769 51 34.7811 50.8802 34.7811 50.6406L34.853 1.25695C34.853 1.06527 34.9488 0.969421 35.1405 0.969421H58.2149C58.4066 0.969421 58.5025 1.08923 58.5025 1.32884V9.37969C58.5025 9.57139 58.4066 9.66729 58.2149 9.66729H43.4789V20.881H58.2149C58.4066 20.881 58.5025 20.9769 58.5025 21.1686L58.5743 29.2913C58.5743 29.483 58.4785 29.5789 58.2868 29.5789H43.4789V42.1584H58.2868C58.4785 42.1584 58.5743 42.2782 58.5743 42.5178V50.7125C58.5743 50.9042 58.4785 51 58.2868 51H35.0686ZM76.7652 51.7188C74.1774 51.7188 71.8053 51.0719 69.6488 49.778C67.5402 48.4362 65.839 46.687 64.5451 44.5305C63.2992 42.3261 62.6762 39.9061 62.6762 37.2703V33.9637C62.6762 33.7241 62.796 33.6043 63.0356 33.6043H71.0865C71.2782 33.6043 71.374 33.7241 71.374 33.9637V37.2703C71.374 38.8518 71.9012 40.2176 72.9554 41.3677C74.0097 42.4699 75.2797 43.021 76.7652 43.021C78.2508 43.021 79.5207 42.4459 80.575 41.2958C81.6293 40.1457 82.1565 38.8039 82.1565 37.2703C82.1565 35.4972 81.0063 33.9637 78.7061 32.6698C77.9393 32.2385 76.7413 31.5676 75.1119 30.6571C73.4826 29.7466 71.9491 28.884 70.5114 28.0693C67.8757 26.5358 65.9109 24.6189 64.617 22.3187C63.371 19.9705 62.748 17.3348 62.748 14.4116C62.748 11.7279 63.395 9.33179 64.6889 7.22324C65.9828 5.06675 67.684 3.36552 69.7926 2.11955C71.9491 0.873581 74.2733 0.250591 76.7652 0.250591C79.3051 0.250591 81.6293 0.897541 83.7379 2.19143C85.8944 3.4374 87.5956 5.13864 88.8416 7.29513C90.1355 9.40369 90.7824 11.7758 90.7824 14.4116V20.306C90.7824 20.4976 90.6866 20.5935 90.4949 20.5935H82.444C82.2523 20.5935 82.1565 20.4976 82.1565 20.306L82.0846 14.4116C82.0846 12.7343 81.5574 11.3685 80.5032 10.3142C79.4489 9.25989 78.2029 8.73279 76.7652 8.73279C75.2797 8.73279 74.0097 9.30789 72.9554 10.458C71.9012 11.5602 71.374 12.8781 71.374 14.4116C71.374 15.993 71.7095 17.3108 72.3804 18.3651C73.0513 19.4194 74.2733 20.4258 76.0464 21.3842C76.286 21.528 76.7413 21.7915 77.4122 22.1749C78.131 22.5104 78.8978 22.9177 79.7124 23.3969C80.5271 23.8282 81.2459 24.2116 81.8689 24.5471C82.5398 24.8825 82.9472 25.0982 83.0909 25.194C85.487 26.5358 87.38 28.1891 88.7697 30.1539C90.1594 32.0708 90.8543 34.4429 90.8543 37.2703C90.8543 40.0019 90.2074 42.4699 88.9135 44.6743C87.6675 46.8308 85.9663 48.556 83.8098 49.8499C81.7012 51.0958 79.353 51.7188 76.7652 51.7188ZM109.08 51.7188C106.444 51.7188 104.048 51.0719 101.892 49.778C99.783 48.4362 98.106 46.6631 96.8599 44.4586C95.6139 42.2542 94.9909 39.7863 94.9909 37.0547L95.0628 14.6272C95.0628 11.9915 95.6618 9.59539 96.8599 7.43889C98.106 5.23448 99.783 3.48533 101.892 2.19143C104.048 0.849621 106.444 0.178711 109.08 0.178711C111.716 0.178711 114.088 0.825661 116.196 2.11955C118.305 3.41344 119.982 5.1626 121.228 7.36701C122.474 9.52349 123.097 11.9436 123.097 14.6272V17.9338C123.097 18.1255 123.001 18.2214 122.81 18.2214H114.759C114.567 18.2214 114.471 18.1255 114.471 17.9338V14.6272C114.471 13.0458 113.944 11.68 112.89 10.5299C111.883 9.37969 110.614 8.80469 109.08 8.80469C107.355 8.80469 106.037 9.40369 105.126 10.6018C104.216 11.7519 103.761 13.0937 103.761 14.6272V37.0547C103.761 38.8278 104.264 40.2655 105.27 41.3677C106.324 42.4699 107.594 43.021 109.08 43.021C110.614 43.021 111.883 42.422 112.89 41.2239C113.944 39.9779 114.471 38.5882 114.471 37.0547V33.7481C114.471 33.5564 114.567 33.4605 114.759 33.4605H122.882C123.073 33.4605 123.169 33.5564 123.169 33.7481V37.0547C123.169 39.7863 122.522 42.2542 121.228 44.4586C119.982 46.6631 118.305 48.4362 116.196 49.778C114.088 51.0719 111.716 51.7188 109.08 51.7188ZM141.724 51.7188C139.136 51.7188 136.764 51.0719 134.607 49.778C132.499 48.4362 130.798 46.687 129.504 44.5305C128.21 42.3261 127.563 39.9061 127.563 37.2703L127.635 14.4834C127.635 11.8477 128.258 9.45159 129.504 7.29513C130.798 5.13864 132.523 3.41344 134.679 2.11955C136.836 0.825661 139.184 0.178711 141.724 0.178711C144.312 0.178711 146.66 0.825661 148.768 2.11955C150.877 3.41344 152.554 5.13864 153.8 7.29513C155.094 9.45159 155.741 11.8477 155.741 14.4834L155.813 37.2703C155.813 39.9061 155.166 42.3261 153.872 44.5305C152.626 46.687 150.925 48.4362 148.768 49.778C146.66 51.0719 144.312 51.7188 141.724 51.7188ZM141.724 43.021C143.162 43.021 144.408 42.4459 145.462 41.2958C146.564 40.0977 147.115 38.7559 147.115 37.2703L147.043 14.4834C147.043 12.902 146.54 11.5602 145.534 10.458C144.527 9.35579 143.257 8.80469 141.724 8.80469C140.238 8.80469 138.968 9.35579 137.914 10.458C136.86 11.5123 136.333 12.8541 136.333 14.4834V37.2703C136.333 38.8518 136.86 40.2176 137.914 41.3677C138.968 42.4699 140.238 43.021 141.724 43.021ZM161.566 51C161.374 51 161.278 50.8802 161.278 50.6406L161.422 1.25695C161.422 1.06527 161.518 0.969421 161.71 0.969421H170.479C170.671 0.969421 170.839 1.06527 170.983 1.25695L177.524 10.7455L184.065 1.25695C184.209 1.06527 184.377 0.969421 184.568 0.969421H193.41C193.602 0.969421 193.698 1.06527 193.698 1.25695L193.841 50.6406C193.841 50.8802 193.745 51 193.554 51H185.431C185.239 51 185.143 50.8802 185.143 50.6406L185.072 13.9803L177.524 24.9065L170.048 13.9803L169.976 50.6406C169.976 50.8802 169.88 51 169.689 51H161.566ZM200.247 51C200.007 51 199.887 50.8802 199.887 50.6406L200.031 1.25695C200.031 1.06527 200.127 0.969421 200.319 0.969421H214.12C218.529 0.969421 222.003 2.31124 224.543 4.99487C227.131 7.6785 228.425 11.3206 228.425 15.9211C228.425 19.3236 227.754 22.2708 226.412 24.7627C225.07 27.2546 223.321 29.1715 221.165 30.5133C219.008 31.8552 216.66 32.5261 214.12 32.5261H208.657V50.6406C208.657 50.8802 208.537 51 208.298 51H200.247ZM208.657 23.8282H214.12C215.654 23.8282 216.972 23.1094 218.074 21.6717C219.224 20.1862 219.799 18.2693 219.799 15.9211C219.799 14.0521 219.296 12.5186 218.289 11.3206C217.283 10.1225 215.893 9.52349 214.12 9.52349L208.657 9.59539V23.8282ZM233.028 51C232.836 51 232.74 50.8802 232.74 50.6406L232.812 1.32884C232.812 1.08923 232.932 0.969421 233.171 0.969421H241.15C241.39 0.969421 241.51 1.08923 241.51 1.32884L241.438 42.1584H256.246C256.485 42.1584 256.605 42.2782 256.605 42.5178V50.6406C256.605 50.8802 256.485 51 256.246 51H233.028ZM261.67 51C261.431 51 261.311 50.8802 261.311 50.6406L261.383 1.25695C261.383 1.06527 261.479 0.969421 261.67 0.969421H269.721C269.913 0.969421 270.009 1.06527 270.009 1.25695L270.081 50.6406C270.081 50.8802 269.985 51 269.793 51H261.67ZM289.63 51.7188C286.994 51.7188 284.598 51.0719 282.442 49.778C280.333 48.4362 278.656 46.6631 277.41 44.4586C276.164 42.2542 275.541 39.7863 275.541 37.0547L275.613 14.6272C275.613 11.9915 276.212 9.59539 277.41 7.43889C278.656 5.23448 280.333 3.48533 282.442 2.19143C284.598 0.849621 286.994 0.178711 289.63 0.178711C292.266 0.178711 294.638 0.825661 296.746 2.11955C298.855 3.41344 300.532 5.1626 301.778 7.36701C303.024 9.52349 303.647 11.9436 303.647 14.6272V17.9338C303.647 18.1255 303.551 18.2214 303.36 18.2214H295.309C295.117 18.2214 295.021 18.1255 295.021 17.9338V14.6272C295.021 13.0458 294.494 11.68 293.44 10.5299C292.433 9.37969 291.163 8.80469 289.63 8.80469C287.905 8.80469 286.587 9.40369 285.676 10.6018C284.766 11.7519 284.311 13.0937 284.311 14.6272V37.0547C284.311 38.8278 284.814 40.2655 285.82 41.3677C286.874 42.4699 288.144 43.021 289.63 43.021C291.163 43.021 292.433 42.422 293.44 41.2239C294.494 39.9779 295.021 38.5882 295.021 37.0547V33.7481C295.021 33.5564 295.117 33.4605 295.309 33.4605H303.431C303.623 33.4605 303.719 33.5564 303.719 33.7481V37.0547C303.719 39.7863 303.072 42.2542 301.778 44.4586C300.532 46.6631 298.855 48.4362 296.746 49.778C294.638 51.0719 292.266 51.7188 289.63 51.7188ZM306.321 50.6406L315.234 1.25695C315.282 1.06527 315.402 0.969421 315.594 0.969421H326.017C326.208 0.969421 326.328 1.06527 326.376 1.25695L334.93 50.6406C334.978 50.8802 334.882 51 334.643 51H326.664C326.472 51 326.352 50.8802 326.304 50.6406L325.514 45.3931H315.737L314.947 50.6406C314.899 50.8802 314.779 51 314.587 51H306.608C306.417 51 306.321 50.8802 306.321 50.6406ZM317.175 37.7016H324.076L321.129 17.5025L320.697 14.8429L320.41 17.5025L317.175 37.7016ZM1.16284 110C0.971145 110 0.875305 109.88 0.875305 109.641L0.947185 60.257C0.947185 60.0653 1.04304 59.9694 1.23472 59.9694H24.3092C24.5009 59.9694 24.5967 60.0892 24.5967 60.3288V68.3797C24.5967 68.5714 24.5009 68.6673 24.3092 68.6673H9.57318V79.881H24.3092C24.5009 79.881 24.5967 79.9769 24.5967 80.1686L24.6686 88.2913C24.6686 88.483 24.5727 88.5789 24.3811 88.5789H9.57318V101.158H24.3811C24.5727 101.158 24.6686 101.278 24.6686 101.518V109.712C24.6686 109.904 24.5727 110 24.3811 110H1.16284ZM39.1115 110C38.9198 110 38.8 109.88 38.752 109.641L28.8322 60.257C28.7843 60.0653 28.8801 59.9694 29.1197 59.9694H37.2425C37.4342 59.9694 37.554 60.0653 37.6019 60.257L43.4963 93.1794L49.247 60.257C49.2949 60.0653 49.4147 59.9694 49.6064 59.9694H57.6573C57.8969 59.9694 57.9927 60.0653 57.9448 60.257L48.1687 109.641C48.1208 109.88 48.001 110 47.8093 110H39.1115ZM62.4459 110C62.2542 110 62.1584 109.88 62.1584 109.641L62.2303 60.257C62.2303 60.0653 62.3261 59.9694 62.5178 59.9694H85.5922C85.7839 59.9694 85.8798 60.0892 85.8798 60.3288V68.3797C85.8798 68.5714 85.7839 68.6673 85.5922 68.6673H70.8562V79.881H85.5922C85.7839 79.881 85.8798 79.9769 85.8798 80.1686L85.9517 88.2913C85.9517 88.483 85.8558 88.5789 85.6641 88.5789H70.8562V101.158H85.6641C85.8558 101.158 85.9517 101.278 85.9517 101.518V109.712C85.9517 109.904 85.8558 110 85.6641 110H62.4459ZM92.9906 110C92.6072 110 92.4155 109.832 92.4155 109.497L92.3436 60.5445C92.3436 60.1611 92.5353 59.9694 92.9187 59.9694H99.388L111.536 88.2913L111.177 60.5445C111.177 60.1611 111.393 59.9694 111.824 59.9694H118.94C119.228 59.9694 119.372 60.1611 119.372 60.5445L119.444 109.569C119.444 109.856 119.324 110 119.084 110H112.758L100.323 83.5471L100.826 109.425C100.826 109.808 100.61 110 100.179 110H92.9906ZM132.876 110C132.684 110 132.589 109.88 132.589 109.641V68.6673H123.244C123.004 68.6673 122.884 68.5475 122.884 68.3079L122.956 60.257C122.956 60.0653 123.052 59.9694 123.244 59.9694H150.559C150.799 59.9694 150.919 60.0653 150.919 60.257V68.3079C150.919 68.5475 150.823 68.6673 150.631 68.6673H141.215L141.286 109.641C141.286 109.88 141.191 110 140.999 110H132.876ZM166.153 110.719C163.565 110.719 161.193 110.072 159.036 108.778C156.928 107.436 155.227 105.687 153.933 103.531C152.639 101.326 151.992 98.906 151.992 96.2703L152.064 73.4834C152.064 70.8477 152.687 68.4516 153.933 66.2951C155.227 64.1386 156.952 62.4135 159.108 61.1196C161.265 59.8257 163.613 59.1787 166.153 59.1787C168.741 59.1787 171.089 59.8257 173.197 61.1196C175.306 62.4135 176.983 64.1386 178.229 66.2951C179.523 68.4516 180.17 70.8477 180.17 73.4834L180.242 96.2703C180.242 98.906 179.595 101.326 178.301 103.531C177.055 105.687 175.354 107.436 173.197 108.778C171.089 110.072 168.741 110.719 166.153 110.719ZM166.153 102.021C167.591 102.021 168.836 101.446 169.891 100.296C170.993 99.098 171.544 97.7559 171.544 96.2703L171.472 73.4834C171.472 71.902 170.969 70.5602 169.963 69.458C168.956 68.3558 167.686 67.8047 166.153 67.8047C164.667 67.8047 163.397 68.3558 162.343 69.458C161.289 70.5123 160.762 71.8541 160.762 73.4834V96.2703C160.762 97.8518 161.289 99.218 162.343 100.368C163.397 101.47 164.667 102.021 166.153 102.021ZM197.927 110.719C195.34 110.719 192.967 110.072 190.811 108.778C188.702 107.436 187.001 105.687 185.707 103.531C184.461 101.326 183.838 98.906 183.838 96.2703V92.9637C183.838 92.7241 183.958 92.6043 184.198 92.6043H192.249C192.44 92.6043 192.536 92.7241 192.536 92.9637V96.2703C192.536 97.8518 193.063 99.218 194.118 100.368C195.172 101.47 196.442 102.021 197.927 102.021C199.413 102.021 200.683 101.446 201.737 100.296C202.791 99.146 203.319 97.8039 203.319 96.2703C203.319 94.4972 202.168 92.9637 199.868 91.6698C199.101 91.2385 197.903 90.5676 196.274 89.6571C194.645 88.7466 193.111 87.884 191.674 87.0693C189.038 85.5358 187.073 83.6189 185.779 81.3187C184.533 78.9705 183.91 76.3348 183.91 73.4116C183.91 70.7279 184.557 68.3318 185.851 66.2233C187.145 64.0668 188.846 62.3655 190.955 61.1196C193.111 59.8736 195.435 59.2506 197.927 59.2506C200.467 59.2506 202.791 59.8976 204.9 61.1914C207.057 62.4374 208.758 64.1386 210.004 66.2951C211.298 68.4037 211.945 70.7758 211.945 73.4116V79.306C211.945 79.4976 211.849 79.5935 211.657 79.5935H203.606C203.414 79.5935 203.319 79.4976 203.319 79.306L203.247 73.4116C203.247 71.7343 202.72 70.3685 201.665 69.3142C200.611 68.2599 199.365 67.7328 197.927 67.7328C196.442 67.7328 195.172 68.3079 194.118 69.458C193.063 70.5602 192.536 71.8781 192.536 73.4116C192.536 74.993 192.872 76.3108 193.543 77.3651C194.213 78.4194 195.435 79.4258 197.209 80.3842C197.448 80.528 197.903 80.7915 198.574 81.1749C199.293 81.5104 200.06 81.9177 200.875 82.3969C201.689 82.8282 202.408 83.2116 203.031 83.5471C203.702 83.8825 204.109 84.0982 204.253 84.194C206.649 85.5358 208.542 87.1891 209.932 89.1539C211.322 91.0708 212.016 93.4429 212.016 96.2703C212.016 99.002 211.37 101.47 210.076 103.674C208.83 105.831 207.128 107.556 204.972 108.85C202.863 110.096 200.515 110.719 197.927 110.719Z" fill="#5F65EA"/>
</svg>
